<svg xmlns="http://www.w3.org/2000/svg" xmlns:xlink="http://www.w3.org/1999/xlink" width="40" height="40" viewBox="0 0 40 40"><defs><style>.cls-1{fill:none;}.cls-2{fill:url(#名称未設定グラデーション_27);}.cls-3{clip-path:url(#clip-path);}.cls-4{fill:#fff;}</style><linearGradient id="名称未設定グラデーション_27" x1="5.86" y1="5.86" x2="34.14" y2="34.14" gradientUnits="userSpaceOnUse"><stop offset="0" stop-color="#c70010"/><stop offset="0.5" stop-color="#dd6625"/><stop offset="1" stop-color="#c70010"/></linearGradient><clipPath id="clip-path"><rect id="SVGID" class="cls-1" x="9" y="9" width="22" height="22"/></clipPath></defs><g id="レイヤー_2" data-name="レイヤー 2"><g id="フッター"><rect class="cls-2" width="40" height="40" rx="20"/><g class="cls-3"><path class="cls-4" d="M19.83,11.42c2.91,0,3.26,0,4.41.06a6.12,6.12,0,0,1,2,.38,3.68,3.68,0,0,1,2.07,2.07,5.93,5.93,0,0,1,.37,2c.06,1.15.07,1.5.07,4.41s0,3.26-.07,4.41a5.82,5.82,0,0,1-.37,2,3.44,3.44,0,0,1-.82,1.26,3.26,3.26,0,0,1-1.25.81,6.12,6.12,0,0,1-2,.38c-1.15,0-1.5.06-4.41.06s-3.26,0-4.42-.06a6,6,0,0,1-2-.38,3.29,3.29,0,0,1-1.26-.81,3.44,3.44,0,0,1-.82-1.26,6.34,6.34,0,0,1-.37-2c0-1.15-.06-1.49-.06-4.41s0-3.26.06-4.41a6.47,6.47,0,0,1,.37-2,3.4,3.4,0,0,1,.82-1.25,3.44,3.44,0,0,1,1.26-.82,6,6,0,0,1,2-.38c1.16-.05,1.5-.06,4.42-.06m0-2c-3,0-3.34,0-4.5.07a8,8,0,0,0-2.66.51,5.41,5.41,0,0,0-1.93,1.26,5.24,5.24,0,0,0-1.26,1.93A8.17,8.17,0,0,0,9,15.87c-.05,1.17-.06,1.54-.06,4.5s0,3.34.06,4.5a8.12,8.12,0,0,0,.51,2.65,5.59,5.59,0,0,0,3.19,3.2,8,8,0,0,0,2.66.5c1.16.06,1.53.07,4.5.07s3.33,0,4.5-.07a8,8,0,0,0,2.65-.5,5.24,5.24,0,0,0,1.93-1.26,5.36,5.36,0,0,0,1.26-1.94,7.86,7.86,0,0,0,.51-2.65c.05-1.16.07-1.53.07-4.5s0-3.33-.07-4.5a7.91,7.91,0,0,0-.51-2.65A5.61,5.61,0,0,0,27,10a8,8,0,0,0-2.65-.51c-1.17,0-1.54-.07-4.5-.07"/><path class="cls-4" d="M19.83,14.77a5.61,5.61,0,1,0,5.6,5.6,5.61,5.61,0,0,0-5.6-5.6m0,9.24a3.64,3.64,0,1,1,3.64-3.64A3.64,3.64,0,0,1,19.83,24"/><path class="cls-4" d="M27,14.54a1.32,1.32,0,1,1-1.32-1.31A1.31,1.31,0,0,1,27,14.54"/></g></g></g></svg>